Coordinates
version=1
nRows=11
nColumns=46
inDegrees=yes

Units are S.I. units (second, meters, Newtons, ...)
Angles are in degrees.

endheader
time	pelvis_tilt	pelvis_list	pelvis_rotation	pelvis_tx	pelvis_ty	pelvis_tz	bb_angle	bb_tx	bb_ty	bb_tz	hip_flexion_r	hip_adduction_r	hip_rotation_r	knee_angle_r	knee_angle_r_beta	ankle_angle_r	subtalar_angle_r	mtp_angle_r	crank_angle_r	hip_flexion_l	hip_adduction_l	hip_rotation_l	knee_angle_l	knee_angle_l_beta	ankle_angle_l	subtalar_angle_l	mtp_angle_l	crank_angle_l	lumbar_extension	lumbar_bending	lumbar_rotation	arm_flex_r	arm_add_r	arm_rot_r	elbow_flex_r	pro_sup_r	wrist_flex_r	wrist_dev_r	arm_flex_l	arm_add_l	arm_rot_l	elbow_flex_l	pro_sup_l	wrist_flex_l	wrist_dev_l
      5.00000000	    -36.81146136	     -5.33543455	     -3.52982138	      0.37796977	      1.07589625	     -0.21889964	      0.00000000	      0.50000000	      0.00000000	      0.25000000	     90.44130704	      5.77239910	      3.75680806	    104.11357548	      1.81712469	      1.35892852	     -9.01558736	      0.00000000	      0.00000000	     38.08699018	    -11.73540844	     -9.25604641	     25.48381769	      0.44477652	    -37.31059040	     -9.71275368	      0.00000000	      0.00000000	    -65.93248869	      1.93035684	      3.60803490	     41.47378828	    -34.98711383	     29.91875246	    127.28150996	     58.10209755	      0.00000000	      0.00000000	     23.04004042	    -27.36170344	      5.24048397	    130.52123736	     56.77689965	      0.00000000	      0.00000000
      5.00500000	    -37.33501545	     -5.35483322	     -3.86603793	      0.37758378	      1.07763293	     -0.21830506	      0.00000000	      0.50000000	      0.00000000	      0.25000000	     90.21517709	      5.96082391	      3.62896093	    102.11235416	      1.78219679	      2.89263073	     -8.88014342	      0.00000000	      0.00000000	     39.12097246	    -11.80638505	     -8.07504300	     27.66285079	      0.48280783	    -36.92339339	    -11.24734480	      0.00000000	      0.00000000	    -65.75401634	      1.88610400	      3.20829329	     43.16744947	    -34.79535961	     31.73455419	    126.68899523	     58.14275326	      0.00000000	      0.00000000	     22.11126479	    -27.49555778	      3.67307188	    130.89576756	     56.76940152	      0.00000000	      0.00000000
      5.01000000	    -37.80293914	     -5.30982437	     -4.13759357	      0.37715624	      1.07934620	     -0.21753766	      0.00000000	      0.50000000	      0.00000000	      0.25000000	     89.81910382	      6.04838199	      3.52115722	     99.95818866	      1.74459951	      4.33934209	     -8.68240652	      0.00000000	      0.00000000	     40.25027708	    -11.79501660	     -6.85356762	     30.01936356	      0.52393673	    -36.75428302	    -12.68423706	      0.00000000	      0.00000000	    -65.58792424	      1.67084415	      3.32236538	     43.40147606	    -34.75447260	     31.67876486	    126.73640366	     58.12213659	      0.00000000	      0.00000000	     22.15606327	    -27.62947097	      3.42432719	    130.84454820	     56.74551134	      0.00000000	      0.00000000
      5.01500000	    -38.02131031	     -5.04783866	     -4.43213064	      0.37734981	      1.08138048	     -0.21659715	      0.00000000	      0.50000000	      0.00000000	      0.25000000	     88.96970909	      6.19919348	      3.64416320	     97.64084371	      1.70415421	      5.76378240	     -8.84183201	      0.00000000	      0.00000000	     41.03343540	    -11.60609926	     -5.84058933	     32.19218930	      0.56185970	    -36.67850569	    -13.63633873	      0.00000000	      0.00000000	    -65.66322334	      1.18355160	      3.16386406	     43.42362287	    -34.73643265	     31.68505547	    126.77858363	     58.12405861	      0.00000000	      0.00000000	     22.25800033	    -27.71448838	      3.26084329	    130.74480357	     56.70982270	      0.00000000	      0.00000000
      5.02000000	    -38.67890146	     -5.04147873	     -4.46128004	      0.37670005	      1.08224329	     -0.21616728	      0.00000000	      0.50000000	      0.00000000	      0.25000000	     88.51234068	      6.03991229	      3.51817565	     95.12657547	      1.66027195	      7.01225871	     -8.29959649	      0.00000000	      0.00000000	     42.76015653	    -11.45870979	     -4.32489125	     34.84951087	      0.60823871	    -36.79509663	    -14.63040805	      0.00000000	      0.00000000	    -65.16952540	      1.24752447	      3.35689110	     43.37247267	    -34.80950641	     31.71382642	    126.83397692	     58.12586115	      0.00000000	      0.00000000	     22.16619013	    -27.80671805	      2.83952562	    130.55663065	     56.63590236	      0.00000000	      0.00000000
      5.02500000	    -39.11519918	     -4.86243018	     -4.49742600	      0.37655921	      1.08341558	     -0.21569618	      0.00000000	      0.50000000	      0.00000000	      0.25000000	     87.68318456	      5.83214572	      3.50196269	     92.50471194	      1.61451180	      8.19003826	     -8.12029081	      0.00000000	      0.00000000	     44.14987301	    -11.12048465	     -2.94113599	     37.28750430	      0.65078972	    -37.08781069	    -15.23194955	      0.00000000	      0.00000000	    -64.86990986	      1.10043867	      3.28545594	     43.17024441	    -34.86459492	     31.79620890	    126.85833425	     58.13158102	      0.00000000	      0.00000000	     22.08606397	    -27.75871700	      2.43839838	    130.27331137	     56.55253887	      0.00000000	      0.00000000
      5.03000000	    -39.47744872	     -4.46306886	     -4.66794614	      0.37623161	      1.08441780	     -0.21500098	      0.00000000	      0.50000000	      0.00000000	      0.25000000	     86.70699171	      5.63625370	      3.57061358	     89.66871200	      1.56501426	      9.12077939	     -8.09531531	      0.00000000	      0.00000000	     45.48188831	    -10.70017225	     -1.86816773	     39.75004542	      0.69376917	    -37.40613314	    -15.70289644	      0.00000000	      0.00000000	    -64.53398007	      0.69019566	      3.06422216	     42.93638311	    -34.92335899	     31.65619493	    126.91356603	     58.11354068	      0.00000000	      0.00000000	     22.05356557	    -27.81019799	      2.03969232	    130.02422072	     56.47095610	      0.00000000	      0.00000000
      5.03500000	    -39.70144284	     -4.07110071	     -4.80864972	      0.37636553	      1.08537680	     -0.21414184	      0.00000000	      0.50000000	      0.00000000	      0.25000000	     85.52251838	      5.41400642	      3.62226789	     86.78432611	      1.51467223	      9.83104904	     -8.07620161	      0.00000000	      0.00000000	     46.69093997	    -10.32697030	     -1.01657485	     42.29030090	      0.73810499	    -37.64198759	    -16.20773437	      0.00000000	      0.00000000	    -64.34443679	      0.23389469	      2.86427726	     42.54307924	    -34.83702503	     31.74084282	    126.86267964	     58.11636403	      0.00000000	      0.00000000	     22.10853915	    -27.86792102	      1.79668443	    129.76508814	     56.40428920	      0.00000000	      0.00000000
      5.04000000	    -39.97280028	     -3.60125931	     -4.89315794	      0.37639969	      1.08584599	     -0.21328280	      0.00000000	      0.50000000	      0.00000000	      0.25000000	     84.38135425	      5.09128857	      3.65723726	     83.80214922	      1.46262342	     10.20792345	     -8.05062613	      0.00000000	      0.00000000	     47.98040232	     -9.82566262	     -0.19345751	     44.90282342	      0.78370211	    -37.73012042	    -16.72270008	      0.00000000	      0.00000000	    -63.98217257	     -0.18568234	      2.54552003	     42.05298722	    -34.77750799	     31.75380815	    126.84017704	     58.11642499	      0.00000000	      0.00000000	     22.10188439	    -27.98576640	      1.60108029	    129.42442035	     56.33159831	      0.00000000	      0.00000000
      5.04500000	    -40.22759067	     -3.15632899	     -4.85428768	      0.37672302	      1.08610004	     -0.21267335	      0.00000000	      0.50000000	      0.00000000	      0.25000000	     83.16637400	      4.70170253	      3.73467991	     80.79446846	      1.41012949	     10.35452777	     -7.99015405	      0.00000000	      0.00000000	     49.26934428	     -9.24993596	      0.62759601	     47.53752717	      0.82968637	    -37.62777080	    -17.02396205	      0.00000000	      0.00000000	    -63.58589609	     -0.48743614	      2.24288120	     41.37862262	    -34.65306347	     31.62959256	    126.77089331	     58.08868649	      0.00000000	      0.00000000	     22.00709486	    -28.14807124	      1.45896927	    128.86330537	     56.23891949	      0.00000000	      0.00000000
      5.05000000	    -40.33000874	     -2.47159525	     -4.84078036	      0.37711404	      1.08632193	     -0.21213633	      0.00000000	      0.50000000	      0.00000000	      0.25000000	     81.83845990	      4.15821394	      3.90174442	     77.77980778	      1.35751374	     10.20923317	     -7.80569571	      0.00000000	      0.00000000	     50.31758490	     -8.46684588	      1.18224607	     50.11963006	      0.87475256	    -37.34550357	    -17.41349450	      0.00000000	      0.00000000	    -63.29810631	     -0.95359159	      1.68680563	     40.78928128	    -34.50443289	     31.50654312	    126.76964216	     58.07349481	      0.00000000	      0.00000000	     22.08442915	    -28.25664668	      1.47684662	    128.39388288	     56.17637492	      0.00000000	      0.00000000
